<svg width="62" height="62" viewBox="0 0 62 62" fill="none" xmlns="http://www.w3.org/2000/svg">
<path d="M36.7513 5.7225C36.7513 8.88299 34.1893 11.445 31.0288 11.445C27.8683 11.445 25.3063 8.88299 25.3063 5.7225C25.3063 2.56201 27.8683 0 31.0288 0C34.1893 0 36.7513 2.56201 36.7513 5.7225ZM31.0288 49.595C27.8683 49.595 25.3063 52.157 25.3063 55.3175C25.3063 58.478 27.8683 61.04 31.0288 61.04C34.1893 61.04 36.7513 58.478 36.7513 55.3175C36.7513 52.157 34.1893 49.595 31.0288 49.595ZM55.8263 24.7975C52.6658 24.7975 50.1038 27.3595 50.1038 30.52C50.1038 33.6805 52.6658 36.2425 55.8263 36.2425C58.9868 36.2425 61.5488 33.6805 61.5488 30.52C61.5488 27.3595 58.9868 24.7975 55.8263 24.7975ZM11.9538 30.52C11.9538 27.3595 9.39178 24.7975 6.23129 24.7975C3.0708 24.7975 0.508789 27.3595 0.508789 30.52C0.508789 33.6805 3.0708 36.2425 6.23129 36.2425C9.39178 36.2425 11.9538 33.6805 11.9538 30.52ZM13.4943 42.332C10.3338 42.332 7.77183 44.894 7.77183 48.0545C7.77183 51.2149 10.3338 53.777 13.4943 53.777C16.6548 53.777 19.2168 51.2149 19.2168 48.0545C19.2168 44.8941 16.6547 42.332 13.4943 42.332ZM48.5632 42.332C45.4028 42.332 42.8407 44.894 42.8407 48.0545C42.8407 51.2149 45.4028 53.777 48.5632 53.777C51.7237 53.777 54.2857 51.2149 54.2857 48.0545C54.2857 44.8941 51.7237 42.332 48.5632 42.332ZM13.4943 7.26304C10.3338 7.26304 7.77183 9.82506 7.77183 12.9855C7.77183 16.146 10.3338 18.708 13.4943 18.708C16.6548 18.708 19.2168 16.146 19.2168 12.9855C19.2168 9.82506 16.6547 7.26304 13.4943 7.26304Z" fill="#00D5E2"/>
</svg>
