<svg width="23" height="20" viewBox="0 0 23 20" fill="none" xmlns="http://www.w3.org/2000/svg">
<path d="M10.3147 3.34488L11.1106 4.39276L11.907 3.34535C12.464 2.61296 13.1834 2.0199 14.0086 1.61292C14.8338 1.20593 15.7422 0.996132 16.6623 1.00006H16.6666C18.48 1.00006 19.6243 1.75798 20.3125 2.71283C20.9952 3.66202 21.2221 4.79666 21.2221 5.55559C21.2221 9.49102 18.6948 12.8514 16.1889 15.2185C14.7799 16.5404 13.2415 17.7172 11.5969 18.731C11.4661 18.8109 11.3342 18.8891 11.2014 18.9656L11.1859 18.974L11.1758 18.9794L11.1659 18.9851L11.1583 18.9894C11.1436 18.9964 11.1274 19 11.111 19C11.0942 19 11.0776 18.9962 11.0625 18.9888L10.6188 18.727C8.97702 17.714 7.44117 16.5387 6.03438 15.2186C3.52637 12.8504 1 9.49112 1 5.55559C1 4.79676 1.22686 3.6623 1.90935 2.71319C2.5975 1.75817 3.74191 1.00006 5.55552 1.00006C7.36562 1.00006 8.78251 1.75485 9.74403 2.69829C9.95245 2.90291 10.1447 3.12103 10.3147 3.34488Z" stroke="#444955" stroke-width="2"/>
</svg>
